<?xml version="1.0" standalone="no"?>
<!DOCTYPE svg PUBLIC "-//W3C//DTD SVG 20010904//EN"
 "http://www.w3.org/TR/2001/REC-SVG-20010904/DTD/svg10.dtd">
<svg version="1.0" xmlns="http://www.w3.org/2000/svg"
 width="900.000000pt" height="800.000000pt" viewBox="0 0 900.000000 800.000000"
 preserveAspectRatio="xMidYMid meet">
<metadata>
Created by potrace 1.15, written by Peter Selinger 2001-2017
</metadata>
<g transform="translate(0.000000,800.000000) scale(0.100000,-0.100000)"
fill="#000000" stroke="none">
<path d="M4065 7919 c-719 -61 -1423 -331 -2004 -767 -1010 -758 -1591 -1947
-1558 -3187 11 -398 67 -732 183 -1088 201 -617 525 -1135 1000 -1597 562
-548 1277 -913 2044 -1044 261 -45 340 -51 670 -51 347 0 470 11 745 66 946
188 1780 711 2365 1484 420 554 679 1208 762 1920 17 147 17 657 0 795 -60
486 -168 865 -363 1269 -427 888 -1175 1581 -2094 1944 -344 135 -726 225
-1100 257 -140 11 -506 11 -650 -1z m1050 -185 c306 -59 610 -157 888 -287 81
-38 129 -75 397 -296 168 -140 311 -260 318 -269 9 -12 12 -104 12 -379 0
-200 -1 -363 -2 -364 -2 0 -304 -9 -673 -18 -455 -12 -676 -15 -690 -8 -17 9
-1204 754 -1213 763 -4 3 99 757 104 763 2 2 139 32 306 67 339 71 330 70 553
28z m-1162 -35 c89 -29 164 -53 166 -55 6 -5 -89 -695 -99 -720 -5 -13 -252
-165 -681 -421 l-674 -401 -490 -11 c-269 -6 -525 -11 -569 -11 l-79 0 6 63
c4 34 11 136 18 227 l12 165 171 171 c412 410 849 685 1408 885 180 64 540
156 621 158 16 1 102 -22 190 -50z m3206 -2373 c226 -376 411 -688 411 -694 0
-14 -588 -1384 -598 -1394 -4 -4 -293 -12 -642 -18 -608 -11 -636 -10 -649 7
-22 29 -852 1317 -858 1330 -5 13 531 1390 548 1408 6 6 260 16 642 26 348 9
655 17 683 17 l51 2 412 -684z m-4529 640 c0 -1 104 -306 230 -676 127 -370
230 -679 230 -687 0 -9 -738 -1313 -766 -1351 -2 -4 -1066 77 -1070 81 -2 2
-112 291 -244 642 -168 448 -239 647 -235 664 5 21 708 1286 724 1303 8 9
1131 33 1131 24z m5499 -1413 c26 -208 33 -356 28 -588 -13 -516 -111 -964
-314 -1425 -79 -177 -142 -296 -287 -530 l-28 -45 -166 40 -167 41 -6 39 c-4
22 -33 263 -65 536 l-58 495 318 742 c278 648 321 742 340 743 16 0 333 32
382 38 7 0 16 -33 23 -86z m-4024 -43 c445 -15 602 -23 611 -33 7 -6 206 -313
443 -681 l432 -670 -29 -45 c-15 -25 -191 -312 -390 -637 l-363 -591 -391 -6
c-215 -4 -588 -7 -828 -7 l-438 0 -371 649 -372 650 362 633 c199 348 379 664
401 701 l40 69 146 -7 c81 -3 417 -15 747 -25z m-3151 -755 l214 -570 92 -574
c50 -315 90 -574 88 -576 -3 -2 -100 -35 -104 -35 -7 0 -111 174 -171 285 -79
146 -153 312 -207 460 -20 55 -41 111 -47 124 -24 57 -91 314 -118 454 -62
318 -85 695 -62 1003 18 226 17 225 63 103 21 -57 135 -360 252 -674z m1028
-2298 c311 -255 572 -464 580 -464 14 0 559 -455 552 -462 -6 -6 -209 78 -352
145 -525 248 -1015 645 -1371 1113 -39 52 -70 95 -68 97 4 4 78 32 88 33 3 1
260 -207 571 -462z m5308 432 c74 -18 139 -35 143 -39 19 -16 -209 -285 -404
-475 -444 -434 -991 -751 -1582 -919 -254 -72 -256 -91 28 191 l250 248 700
512 c385 281 707 512 715 512 8 1 76 -13 150 -30z m-2074 -530 c225 -199 410
-365 412 -368 1 -3 -141 -149 -315 -323 l-318 -316 -95 -11 c-458 -56 -907
-36 -1327 57 l-123 27 -399 338 -400 338 226 267 c124 147 242 284 262 304
l35 38 675 3 c372 1 739 3 817 5 l140 2 410 -361z"/>
</g>
</svg>
